<mxfile host="app.diagrams.net" agent="Mozilla/5.0 (X11; Ubuntu; Linux x86_64; rv:130.0) Gecko/20100101 Firefox/130.0" version="24.7.16">
  <diagram name="Page-1" id="ZEaAZCPQgWGfXMEy4hpa">
    <mxGraphModel dx="1467" dy="648" grid="1" gridSize="10" guides="1" tooltips="1" connect="1" arrows="0" fold="1" page="1" pageScale="1" pageWidth="827" pageHeight="1169" math="0" shadow="0">
      <root>
        <mxCell id="0" />
        <mxCell id="1" parent="0" />
        <mxCell id="VV7cBgodAmmCFqREBcx--11" value="Start" style="strokeWidth=2;html=1;shape=mxgraph.flowchart.terminator;whiteSpace=wrap;" vertex="1" parent="1">
          <mxGeometry x="310" y="140" width="50" height="40" as="geometry" />
        </mxCell>
        <mxCell id="VV7cBgodAmmCFqREBcx--12" value="Load random map from one of 9 available" style="rounded=1;whiteSpace=wrap;html=1;absoluteArcSize=1;arcSize=14;strokeWidth=2;" vertex="1" parent="1">
          <mxGeometry x="292.5" y="240" width="85" height="70" as="geometry" />
        </mxCell>
        <mxCell id="VV7cBgodAmmCFqREBcx--13" value="The map load without error?" style="strokeWidth=2;html=1;shape=mxgraph.flowchart.decision;whiteSpace=wrap;" vertex="1" parent="1">
          <mxGeometry x="285" y="345" width="100" height="100" as="geometry" />
        </mxCell>
        <mxCell id="VV7cBgodAmmCFqREBcx--14" value="Display Error " style="rounded=1;whiteSpace=wrap;html=1;absoluteArcSize=1;arcSize=14;strokeWidth=2;" vertex="1" parent="1">
          <mxGeometry x="100" y="360" width="110" height="70" as="geometry" />
        </mxCell>
        <mxCell id="VV7cBgodAmmCFqREBcx--15" value="End" style="strokeWidth=2;html=1;shape=mxgraph.flowchart.start_2;whiteSpace=wrap;" vertex="1" parent="1">
          <mxGeometry x="127.5" y="500" width="55" height="50" as="geometry" />
        </mxCell>
        <mxCell id="VV7cBgodAmmCFqREBcx--16" value="Initialise Window, set player attribute " style="rounded=1;whiteSpace=wrap;html=1;absoluteArcSize=1;arcSize=14;strokeWidth=2;" vertex="1" parent="1">
          <mxGeometry x="290" y="487.5" width="90" height="75" as="geometry" />
        </mxCell>
        <mxCell id="VV7cBgodAmmCFqREBcx--17" value="&lt;div&gt;Does the&amp;nbsp;&lt;/div&gt;&lt;div&gt;window start ?&lt;/div&gt;" style="strokeWidth=2;html=1;shape=mxgraph.flowchart.decision;whiteSpace=wrap;" vertex="1" parent="1">
          <mxGeometry x="285" y="610" width="100" height="100" as="geometry" />
        </mxCell>
        <mxCell id="VV7cBgodAmmCFqREBcx--18" value="&lt;div&gt;RENDER&lt;br&gt;&lt;/div&gt;&lt;div&gt;check time&lt;/div&gt;&lt;div&gt;cast rays&lt;/div&gt;&lt;div&gt;Draw world&lt;/div&gt;&lt;div&gt;Handle player input &lt;br&gt;&lt;/div&gt;" style="rounded=1;whiteSpace=wrap;html=1;absoluteArcSize=1;arcSize=14;strokeWidth=2;" vertex="1" parent="1">
          <mxGeometry x="575" y="497.5" width="90" height="125" as="geometry" />
        </mxCell>
        <mxCell id="VV7cBgodAmmCFqREBcx--19" value="&lt;div&gt;Game is&amp;nbsp;&lt;/div&gt;&lt;div&gt;Running ??&lt;/div&gt;" style="strokeWidth=2;html=1;shape=mxgraph.flowchart.decision;whiteSpace=wrap;" vertex="1" parent="1">
          <mxGeometry x="570" y="345" width="100" height="100" as="geometry" />
        </mxCell>
        <mxCell id="VV7cBgodAmmCFqREBcx--20" value="&lt;div&gt;TIME&lt;br&gt;&lt;/div&gt;&lt;div&gt;Timer Start&lt;/div&gt;&lt;div&gt;Music Start&lt;br&gt;&lt;/div&gt;" style="rounded=1;whiteSpace=wrap;html=1;absoluteArcSize=1;arcSize=14;strokeWidth=2;" vertex="1" parent="1">
          <mxGeometry x="450" y="622.5" width="90" height="75" as="geometry" />
        </mxCell>
        <mxCell id="VV7cBgodAmmCFqREBcx--21" value="Destroy window and free ressources" style="rounded=1;whiteSpace=wrap;html=1;absoluteArcSize=1;arcSize=14;strokeWidth=2;" vertex="1" parent="1">
          <mxGeometry x="740" y="357.5" width="90" height="75" as="geometry" />
        </mxCell>
        <mxCell id="VV7cBgodAmmCFqREBcx--22" value="" style="endArrow=classic;html=1;rounded=0;exitX=0.5;exitY=1;exitDx=0;exitDy=0;exitPerimeter=0;entryX=0.5;entryY=0;entryDx=0;entryDy=0;" edge="1" parent="1" source="VV7cBgodAmmCFqREBcx--19" target="VV7cBgodAmmCFqREBcx--18">
          <mxGeometry width="50" height="50" relative="1" as="geometry">
            <mxPoint x="620" y="500" as="sourcePoint" />
            <mxPoint x="670" y="450" as="targetPoint" />
          </mxGeometry>
        </mxCell>
        <mxCell id="VV7cBgodAmmCFqREBcx--23" value="" style="endArrow=classic;html=1;rounded=0;exitX=1;exitY=0.5;exitDx=0;exitDy=0;exitPerimeter=0;entryX=0;entryY=0.5;entryDx=0;entryDy=0;" edge="1" parent="1" source="VV7cBgodAmmCFqREBcx--19" target="VV7cBgodAmmCFqREBcx--21">
          <mxGeometry width="50" height="50" relative="1" as="geometry">
            <mxPoint x="630" y="455" as="sourcePoint" />
            <mxPoint x="630" y="508" as="targetPoint" />
          </mxGeometry>
        </mxCell>
        <mxCell id="VV7cBgodAmmCFqREBcx--24" value="" style="endArrow=classic;html=1;rounded=0;entryX=0;entryY=0.5;entryDx=0;entryDy=0;exitX=1;exitY=0.5;exitDx=0;exitDy=0;exitPerimeter=0;" edge="1" parent="1" source="VV7cBgodAmmCFqREBcx--17" target="VV7cBgodAmmCFqREBcx--20">
          <mxGeometry width="50" height="50" relative="1" as="geometry">
            <mxPoint x="380" y="660" as="sourcePoint" />
            <mxPoint x="630" y="508" as="targetPoint" />
          </mxGeometry>
        </mxCell>
        <mxCell id="VV7cBgodAmmCFqREBcx--25" value="" style="endArrow=classic;html=1;rounded=0;entryX=0.5;entryY=0;entryDx=0;entryDy=0;exitX=0.5;exitY=1;exitDx=0;exitDy=0;entryPerimeter=0;" edge="1" parent="1" source="VV7cBgodAmmCFqREBcx--16" target="VV7cBgodAmmCFqREBcx--17">
          <mxGeometry width="50" height="50" relative="1" as="geometry">
            <mxPoint x="395" y="670" as="sourcePoint" />
            <mxPoint x="460" y="670" as="targetPoint" />
          </mxGeometry>
        </mxCell>
        <mxCell id="VV7cBgodAmmCFqREBcx--26" value="" style="endArrow=classic;html=1;rounded=0;entryX=0.5;entryY=0;entryDx=0;entryDy=0;exitX=0.5;exitY=1;exitDx=0;exitDy=0;exitPerimeter=0;" edge="1" parent="1" source="VV7cBgodAmmCFqREBcx--13" target="VV7cBgodAmmCFqREBcx--16">
          <mxGeometry width="50" height="50" relative="1" as="geometry">
            <mxPoint x="345" y="573" as="sourcePoint" />
            <mxPoint x="345" y="620" as="targetPoint" />
          </mxGeometry>
        </mxCell>
        <mxCell id="VV7cBgodAmmCFqREBcx--27" value="" style="endArrow=classic;html=1;rounded=0;entryX=1;entryY=0.5;entryDx=0;entryDy=0;exitX=0;exitY=0.5;exitDx=0;exitDy=0;exitPerimeter=0;" edge="1" parent="1" source="VV7cBgodAmmCFqREBcx--13" target="VV7cBgodAmmCFqREBcx--14">
          <mxGeometry width="50" height="50" relative="1" as="geometry">
            <mxPoint x="345" y="455" as="sourcePoint" />
            <mxPoint x="345" y="498" as="targetPoint" />
          </mxGeometry>
        </mxCell>
        <mxCell id="VV7cBgodAmmCFqREBcx--28" value="" style="endArrow=classic;html=1;rounded=0;entryX=0.5;entryY=0;entryDx=0;entryDy=0;exitX=0.5;exitY=1;exitDx=0;exitDy=0;entryPerimeter=0;" edge="1" parent="1" source="VV7cBgodAmmCFqREBcx--14" target="VV7cBgodAmmCFqREBcx--15">
          <mxGeometry width="50" height="50" relative="1" as="geometry">
            <mxPoint x="295" y="405" as="sourcePoint" />
            <mxPoint x="220" y="405" as="targetPoint" />
          </mxGeometry>
        </mxCell>
        <mxCell id="VV7cBgodAmmCFqREBcx--29" value="" style="endArrow=classic;html=1;rounded=0;entryX=0.5;entryY=0;entryDx=0;entryDy=0;exitX=0.5;exitY=1;exitDx=0;exitDy=0;entryPerimeter=0;" edge="1" parent="1" source="VV7cBgodAmmCFqREBcx--12" target="VV7cBgodAmmCFqREBcx--13">
          <mxGeometry width="50" height="50" relative="1" as="geometry">
            <mxPoint x="295" y="405" as="sourcePoint" />
            <mxPoint x="220" y="405" as="targetPoint" />
          </mxGeometry>
        </mxCell>
        <mxCell id="VV7cBgodAmmCFqREBcx--30" value="" style="endArrow=classic;html=1;rounded=0;entryX=0.5;entryY=0;entryDx=0;entryDy=0;exitX=0.5;exitY=1;exitDx=0;exitDy=0;exitPerimeter=0;" edge="1" parent="1" source="VV7cBgodAmmCFqREBcx--11" target="VV7cBgodAmmCFqREBcx--12">
          <mxGeometry width="50" height="50" relative="1" as="geometry">
            <mxPoint x="345" y="320" as="sourcePoint" />
            <mxPoint x="345" y="355" as="targetPoint" />
          </mxGeometry>
        </mxCell>
        <mxCell id="VV7cBgodAmmCFqREBcx--31" value="" style="endArrow=classic;html=1;rounded=0;entryX=0;entryY=0.5;entryDx=0;entryDy=0;entryPerimeter=0;" edge="1" parent="1" target="VV7cBgodAmmCFqREBcx--19">
          <mxGeometry width="50" height="50" relative="1" as="geometry">
            <mxPoint x="500" y="620" as="sourcePoint" />
            <mxPoint x="345" y="250" as="targetPoint" />
            <Array as="points">
              <mxPoint x="500" y="395" />
            </Array>
          </mxGeometry>
        </mxCell>
        <mxCell id="VV7cBgodAmmCFqREBcx--32" value="" style="endArrow=classic;html=1;rounded=0;exitX=0;exitY=0.5;exitDx=0;exitDy=0;exitPerimeter=0;" edge="1" parent="1" source="VV7cBgodAmmCFqREBcx--17">
          <mxGeometry width="50" height="50" relative="1" as="geometry">
            <mxPoint x="345" y="573" as="sourcePoint" />
            <mxPoint x="210" y="430" as="targetPoint" />
            <Array as="points">
              <mxPoint x="210" y="660" />
            </Array>
          </mxGeometry>
        </mxCell>
        <mxCell id="VV7cBgodAmmCFqREBcx--33" value="End" style="strokeWidth=2;html=1;shape=mxgraph.flowchart.start_2;whiteSpace=wrap;" vertex="1" parent="1">
          <mxGeometry x="757.5" y="480" width="55" height="50" as="geometry" />
        </mxCell>
        <mxCell id="VV7cBgodAmmCFqREBcx--34" value="" style="endArrow=classic;html=1;rounded=0;exitX=0.5;exitY=1;exitDx=0;exitDy=0;entryX=0.5;entryY=0;entryDx=0;entryDy=0;entryPerimeter=0;" edge="1" parent="1" source="VV7cBgodAmmCFqREBcx--21" target="VV7cBgodAmmCFqREBcx--33">
          <mxGeometry width="50" height="50" relative="1" as="geometry">
            <mxPoint x="680" y="405" as="sourcePoint" />
            <mxPoint x="750" y="405" as="targetPoint" />
          </mxGeometry>
        </mxCell>
      </root>
    </mxGraphModel>
  </diagram>
</mxfile>
